<svg xmlns="http://www.w3.org/2000/svg" width="163" height="56" fill="none" viewBox="0 0 163 56"><g fill="#66D4F5" clip-path="url(#clip0)"><path d="M44.6 56c-1.7.2-3-.3-4.2-1.3A11 11 0 0136 46c-.2-3.6.1-7.2.9-10.8a120.3 120.3 0 014.7-16c1.4-3.2 2.8-6.4 4.8-9.3A80 80 0 0150 5l1.5-1.1c.4-.3.9-.4 1.4-.4 2 .2 3.4 1.3 4.5 2.9.2.4.2.8-.1 1.2l-1.2 1.4c-1.2 1.1-1.5 2.6-2 4L53 16c-1 3.2-2.5 6.4-3.1 9.8L48.5 32c0 .6-.2 1.1-.3 1.7l-.6 3.8c-1 4.7-1.6 9.4-1.7 14.2 0 .9-.1 1.8-.7 2.6l-.6 1.5zM119.8 27.6c0 1.7-.8 2.1-.8 2.1l-1 1.1-.8.9-.8.8-2.3 2.2-3.4 3c-.6 3.6 0 6.5 1.7 8.9 1 .4 1.8 0 2.6-.3 1.5-.7 3-1.4 4.2-2.3 2.1-1.5 4-3.3 5.8-5 .5-.3.8-.8 1-1.4.9-2 2-3.7 3.2-5.4a5 5 0 013.3-2.4l2.4.3c.6 0 1 .2 1.5.5 1.6 1 1.7 1.2 1.4 2.7v.4l.4.5c1 1 1.2 2 1 3l-1 3.9c-.7 2.3-1.8 4.3-3 6.4-.7 1.3-2 2.2-3.8 2.6H130c-1.9-.6-3.5-1.5-4.4-3.2l-.8-1.5-.9.5-1.9 1.5c-1.4 1.3-3.4 1.8-5.3 2.4-1.4.6-3.1.3-4.7-.2s-3-1.4-4.2-2.3a7.7 7.7 0 01-2.4-3.8l-.9-2.7-1.4-.3c-.5 1-1 1.9-1.3 2.8-.7 1.5-1 3-1.3 4.7 0 .2-.2.4-.1.6.2 1-.3 2-.4 3-.2 1-.8 1.6-2 1.7l-.6-.3c-2-.8-3-2.2-2.8-4l1-4.3 2.5-6.9c2.4-6.8 5.3-13.4 8.8-19.8.6-1.2 1.5-2.4 2.2-3.6.6-1 1.7-1.2 2.9-1 .6 0 1.2.2 1.7.7.8.8 1 1.3.6 2.2l-.5.7a15 15 0 00-1.5 3.4 9.2 9.2 0 01-1.8 3.6l-.1.3c-.7 2-1.8 3.7-2.7 5.5-.7 1.3-1.2 2.7-1.8 4v.3c0 .2.3.5.6.4l.6-.3c1-.9 2-1.7 2.8-2.6 2.4-2.6 4-3.6 6.1-6.4 0 0 3.8.6 3.8 2.4zm10 18.2c1.5-1.2 4.3-6.7 4.5-9.1-.3 0-.7 0-.9.2-.6.9-1.4 1.5-2 2.3l-.9 1.2-1 3c-.1.7-.1 1.5.2 2.4zM139.5 49.4a15 15 0 01-.2-4.5c.2-2.4.8-4.8 1.7-7 2-5.4 4.8-10.6 8.2-15.3l2.6-2.9c1.1-1 3-.8 4.2.3.8.7 1 1.8.3 2.3-.8.5-1 1.1-1.4 1.8l-2.6 4.6-1 2-1.3 2.6c-.4.9-.9 1.7-1.2 2.6-.3 1-.9 1.8-1.2 2.7l-2 5.3-.7 2.2-1 2.6v1l.3.3c.8 1.4.4 1.6-.6 2.4-.4.3-1 .3-1.5 0-1.4-.8-2.5-1.8-2.6-3zM159.9 34.2c1 1 1.9 2.1 2.5 3.3.5 1 .7 2 .5 2.8-.2.7-.3 1.5-.6 2.2-.7 1.7-1.4 3.5-2.5 5-.8 1-1.8 2-2.9 2.8-.8.6-2 .8-3.1.8-.9 0-1.8-.4-2.7-.8l-.8-.5a3.2 3.2 0 01-2-2.3c-.2-.6-.2-1.2-.2-1.7.1-.9.2-1.7.5-2.5 1.1-2.9 2-5.8 3.5-8.5.5-1 1.2-1.7 1.8-2.6.2-.3.6-.5.9-.7 1.2-1 3.3-.4 4.8.6.4.2.6.5.5.8l-.2 1.3zm-2.8 2.7l-.7 1.1c-.5.9-.5 2-1.4 2.7l-.1.6-.5 1.3-.7 2.3.1.7.5-.3c1.5-1.7 2.4-3.8 3.2-6 .2-.6.2-1.3 0-2l-.4-.4zM20.2 45.3c0-1.7.3-3.3 1-4.9 1.3-3.9 3-7.6 5.6-10.8l.7-1.2 1-1.6c.4-.7 1-1 1.9-1.1 1.7-.2 3.1.5 4.3 1.6.7.8 1 1.7.8 2.8a12 12 0 00-.2 1.7c-.2 2.5-.8 4.9-1.6 7.2-.2.3-.3.6-.3 1a17.4 17.4 0 01-4.8 9.2c-2.5 2.2-4.9 2-7-.8l-.6-1c-.5-.6-.8-1.3-.8-2.1zm4.5 1l1-.5c1.1-1 2-2 2.7-3.3 1.3-2.6 2.4-5.2 3.4-7.9.5-1.4.7-3 .6-4.4l-.3-1c-.8.8-2 .9-2.4 1.9l-1.2 2.6-.8 1.9a32 32 0 00-2.6 7.2c-.2 1-.7 2.2-.4 3.6z"/><path d="M7.4 43.3c0 1.4.5 2.8 1 4.2l.2.6c.2.3.7.3.9.1.5-.6 1-1.3 1-2.1.2-2.2.3-4.4.1-6.5l-.1-2.6-1.1-12.4-.3-2.9c-.4-5.3.6-10.3 2.9-15.1 1-2 2.2-3.6 3.7-5 .3-.3.7-.5 1-.6l5.1-1c1.2-.1 2.3.2 3.3.7 1.8 1 3.2 2.4 4.3 4.1 1 1.6 1.6 3.4 2.3 5l.3 1.8c0 2.1 0 4.2.3 6.3 0 1.1-.2 2.2-.7 3.2a3.7 3.7 0 01-3.8 2l-1.6-.5c-1.3-.7-1.7-.4-1.6-2.5.2-1.7 0-3.4 0-5.2 0-2-.4-3.8-1.4-5.6l-1.3-2.8c-.3-.7-.8-.9-1.4-.5-.7.3-1.2.7-1.4 1.5-.1.4-.4.8-.6 1.1-.4 1-.8 2-.8 3a35.4 35.4 0 00-.8 12.5c-.1 1-.2 1.8.1 2.8.3.8.2 1.6.2 2.4l.6 6.5v1.8l.5 7c.1 1.5 0 3.1-.3 4.6a4.4 4.4 0 01-1.8 3c-.4.3-.7.7-.9 1.2-.2.6-.8 1-1.5 1l-2 .1a6 6 0 01-4-1.6L6 52c-4.4-2.2-6.5-5.2-6-10 0-.9.2-1.7.3-2.5.2-.7.7-1.1 1.4-1.3l2-.2c1.7 0 2.4 1.2 2.9 2.5l.7 3zM64.9 45c.8 0 1.6-.4 2.3-.7l1.8-.9c.8-.3 1.4-.2 1.7.4.5.8.5 1.5-.1 2l-2.9 2.4c-1 .7-2.4.9-3.6.3-1-.5-2-1-2.8-1.8l-.5-.5-.7.8c-1 1.5-2 2.7-3.3 3.8-1 1-2.2 1.3-3.4 1.7-.6.2-1.2.1-1.8-.2-2-1-3.2-2.7-3.8-4.7-.4-1.5-.1-3 .3-4.4a18 18 0 012.8-5.5c1.8-2.4 3.9-4.7 6.3-6.6 1.4-1 3-1.7 4.8-1.5.4 0 .8.1 1 .3l2.4 1.8c.7.6.9 1.2.4 2-.5.9-.6 1.8-.7 2.8v1c-.5 1.6-.6 3.2-.9 4.7-.1 1 0 2 .7 2.8zm-6.2-8c-.5 0-.6.2-.8.4a63 63 0 00-2.4 3.5L54 44.1c-.4 1-.8 2-1 3v.6l.4-.1c2.1-1.5 3.8-3.5 5.2-5.7v-1a9 9 0 010-3.1v-.9zM79.7 35l-.4 1.6.8-.2c1.4-1 2.9-1.9 4.3-3 .9-.6 1.8-1 3-.6l1.4.4c1 .3 1.2 1.3.5 2-.6.4-1.2.9-1.8 1-1 .3-2 1-2.8 1.5L82 39.5c-1 .5-1.8 1-2.8 1.3-.8.3-1.4.8-1.6 1.8L76 48.8c-.2.7-.3 1.4-.2 2.1v.9c-.4.4-.8.6-1.4.6-.5 0-.8-.2-1.2-.5a3.5 3.5 0 01-1.6-2.1c-.5-1.5-.4-3 0-4.6A34.4 34.4 0 0175.7 34c.6-.7 1.3-.9 2.1-.5l.6.3 1.2 1.2zM85.4 48.5c0-.9 0-1.7.2-2.5a24 24 0 013-6.6L90 38c.5-.5 1.2-.7 2-.6 1.2.1 1.7.8 1.5 2l-.2.6-2.2 5.7-1 2.6c-.2.5-.3 1 0 1.5v.4c.1 1-.6 1.6-1.6 1.4-.8 0-1.6-.4-2-1.1l-1-2zM92.2 32.1c.7-.5 1.4-1 2.2-1 1 .2 2 .5 2.6 1.2.3.2.5.6.6 1 .1.9-.4 1.6-1.4 2.2-.9.5-1.8.5-2.6 0-1.1-.9-1.4-2-1.4-3.4z"/></g><defs><clipPath id="clip0"><path fill="#fff" d="M0 0h163v56H0z"/></clipPath></defs></svg>